<svg width="120" height="120" viewBox="0 0 120 120" fill="none" xmlns="http://www.w3.org/2000/svg">
<rect width="120" height="120" rx="12" fill="#49505B" fill-opacity="0.5"/>
<path d="M39.3196 21.213C45.2478 17.2866 52.3569 15 60 15C80.7107 15 97.5 31.7893 97.5 52.5C97.5 67.097 94.7215 81.0446 89.6621 93.8424M28.713 31.8196C24.7866 37.7478 22.5 44.8569 22.5 52.5C22.5 59.8383 20.3937 66.6843 16.7505 72.4656M26.6945 90.26C35.7406 80.2777 41.25 67.0324 41.25 52.5C41.25 42.1447 49.6447 33.75 60 33.75C70.3553 33.75 78.75 42.1447 78.75 52.5C78.75 55.1345 78.6429 57.7437 78.4298 60.3232M60.0016 52.5C60.0016 71.113 53.2213 88.1425 41.9958 101.253M75.1649 78.2715C72.426 87.8716 68.1953 96.8427 62.7395 104.918" stroke="white" stroke-width="7.5" stroke-linecap="round" stroke-linejoin="round"/>
</svg>
