<svg width="117" height="120" viewBox="0 0 117 120" fill="none" xmlns="http://www.w3.org/2000/svg">
<path d="M91.7559 120C90.9391 120 90.1602 119.656 89.6108 119.051L82.2502 110.955C80.5572 109.092 81.8785 106.105 84.3953 106.105L97.0481 106.105C98.6492 106.105 99.9472 107.403 99.9472 109.004L99.9472 117.101C99.9472 118.702 98.6492 120 97.0481 120L91.7559 120Z" fill="#25272C"/>
<path d="M82.3428 110.87C80.7228 109.088 81.9872 106.231 84.3955 106.231L97.0479 106.231C98.5798 106.231 99.8221 107.472 99.8223 109.004L99.8223 117.101C99.8223 118.633 98.5799 119.875 97.0479 119.875L91.7559 119.875L91.6094 119.871C90.8817 119.833 90.1959 119.509 89.7031 118.967L82.3428 110.87Z" stroke="white" stroke-opacity="0.3" stroke-width="0.25"/>
<path d="M23.5066 120C24.3233 120 25.1023 119.656 25.6517 119.051L33.0123 110.955C34.7053 109.092 33.384 106.105 30.8672 106.105L18.2144 106.105C16.6132 106.105 15.3153 107.403 15.3153 109.004L15.3153 117.101C15.3153 118.702 16.6132 120 18.2144 120L23.5066 120Z" fill="#25272C"/>
<path d="M32.9197 110.87C34.5396 109.088 33.2752 106.231 30.8669 106.231L18.2146 106.231C16.6826 106.231 15.4404 107.472 15.4402 109.004L15.4402 117.101C15.4402 118.633 16.6825 119.875 18.2146 119.875L23.5066 119.875L23.6531 119.871C24.3807 119.833 25.0665 119.509 25.5593 118.967L32.9197 110.87Z" stroke="white" stroke-opacity="0.3" stroke-width="0.25"/>
<g filter="url(#filter0_iii_5_37572)">
<rect x="0.157593" y="-0.000244141" width="113.685" height="113.685" rx="14.4954" fill="url(#paint0_linear_5_37572)"/>
</g>
<rect x="0.282593" y="0.124756" width="113.435" height="113.435" rx="14.3704" stroke="white" stroke-opacity="0.3" stroke-width="0.25"/>
<g filter="url(#filter1_dii_5_37572)">
<rect x="11.1576" y="10.9998" width="90.9478" height="90.9478" rx="5.79814" fill="#3F444D"/>
<rect x="11.1576" y="10.9998" width="90.9478" height="90.9478" rx="5.79814" fill="url(#paint1_linear_5_37572)" fill-opacity="0.6"/>
<rect x="11.2793" y="11.1214" width="90.7045" height="90.7045" rx="5.67648" stroke="white" stroke-opacity="0.3" stroke-width="0.243315"/>
</g>
<g filter="url(#filter2_di_5_37572)">
<rect x="98.1576" y="26.9998" width="8" height="16" rx="2.89907" fill="#3F444D"/>
<rect x="98.2826" y="27.1248" width="7.75" height="15.75" rx="2.77407" stroke="white" stroke-opacity="0.3" stroke-width="0.25"/>
</g>
<g filter="url(#filter3_di_5_37572)">
<rect x="98.1576" y="66.9998" width="8" height="16" rx="2.89907" fill="#3F444D"/>
<rect x="98.2826" y="67.1248" width="7.75" height="15.75" rx="2.77407" stroke="white" stroke-opacity="0.3" stroke-width="0.25"/>
</g>
<g filter="url(#filter4_d_5_37572)">
<mask id="path-13-inside-1_5_37572" fill="white">
<path d="M78.9974 37.8279L59.8256 56.9988L79.0101 76.1833L76.181 79.0115L56.9974 59.8279L37.9857 78.8406L35.1576 76.0115L54.1693 56.9998L35.1693 37.9998L37.9974 35.1716L56.9974 54.1707L76.1693 34.9998L78.9974 37.8279Z"/>
</mask>
<g filter="url(#filter5_i_5_37572)">
<path d="M78.9974 37.8279L59.8256 56.9988L79.0101 76.1833L76.181 79.0115L56.9974 59.8279L37.9857 78.8406L35.1576 76.0115L54.1693 56.9998L35.1693 37.9998L37.9974 35.1716L56.9974 54.1707L76.1693 34.9998L78.9974 37.8279Z" fill="#3F444D"/>
</g>
<path d="M78.9974 37.8279L79.1742 38.0047L79.351 37.8279L79.1742 37.6511L78.9974 37.8279ZM59.8256 56.9988L59.6488 56.822L59.472 56.9988L59.6488 57.1756L59.8256 56.9988ZM79.0101 76.1833L79.1869 76.3602L79.3637 76.1834L79.1869 76.0066L79.0101 76.1833ZM76.181 79.0115L76.0043 79.1883L76.181 79.365L76.3578 79.1883L76.181 79.0115ZM56.9974 59.8279L57.1742 59.6511L56.9974 59.4743L56.8207 59.6511L56.9974 59.8279ZM37.9857 78.8406L37.8089 79.0173L37.9857 79.1942L38.1625 79.0173L37.9857 78.8406ZM35.1576 76.0115L34.9808 75.8347L34.8041 76.0114L34.9808 76.1882L35.1576 76.0115ZM54.1693 56.9998L54.3461 57.1765L54.5229 56.9998L54.3461 56.823L54.1693 56.9998ZM35.1693 37.9998L34.9925 37.823L34.8158 37.9998L34.9925 38.1765L35.1693 37.9998ZM37.9974 35.1716L38.1742 34.9948L37.9974 34.8181L37.8207 34.9949L37.9974 35.1716ZM56.9974 54.1707L56.8207 54.3474L56.9974 54.5242L57.1742 54.3474L56.9974 54.1707ZM76.1693 34.9998L76.3461 34.823L76.1693 34.6462L75.9925 34.823L76.1693 34.9998ZM78.9974 37.8279L78.8207 37.6511L59.6488 56.822L59.8256 56.9988L60.0023 57.1756L79.1742 38.0047L78.9974 37.8279ZM59.8256 56.9988L59.6488 57.1756L78.8334 76.3601L79.0101 76.1833L79.1869 76.0066L60.0023 56.822L59.8256 56.9988ZM79.0101 76.1833L78.8334 76.0065L76.0043 78.8347L76.181 79.0115L76.3578 79.1883L79.1869 76.3602L79.0101 76.1833ZM76.181 79.0115L76.3578 78.8347L57.1742 59.6511L56.9974 59.8279L56.8207 60.0047L76.0043 79.1883L76.181 79.0115ZM56.9974 59.8279L56.8207 59.6511L37.8089 78.6638L37.9857 78.8406L38.1625 79.0173L57.1742 60.0047L56.9974 59.8279ZM37.9857 78.8406L38.1625 78.6638L35.3344 75.8347L35.1576 76.0115L34.9808 76.1882L37.8089 79.0173L37.9857 78.8406ZM35.1576 76.0115L35.3344 76.1883L54.3461 57.1765L54.1693 56.9998L53.9925 56.823L34.9808 75.8347L35.1576 76.0115ZM54.1693 56.9998L54.3461 56.823L35.3461 37.823L35.1693 37.9998L34.9925 38.1765L53.9925 57.1765L54.1693 56.9998ZM35.1693 37.9998L35.3461 38.1765L38.1742 35.3484L37.9974 35.1716L37.8207 34.9949L34.9925 37.823L35.1693 37.9998ZM37.9974 35.1716L37.8207 35.3484L56.8207 54.3474L56.9974 54.1707L57.1742 53.9939L38.1742 34.9948L37.9974 35.1716ZM56.9974 54.1707L57.1742 54.3474L76.3461 35.1765L76.1693 34.9998L75.9925 34.823L56.8207 53.9939L56.9974 54.1707ZM76.1693 34.9998L75.9925 35.1765L78.8207 38.0047L78.9974 37.8279L79.1742 37.6511L76.3461 34.823L76.1693 34.9998Z" fill="white" fill-opacity="0.3" mask="url(#path-13-inside-1_5_37572)"/>
<g filter="url(#filter6_di_5_37572)">
<circle cx="57.1576" cy="56.9998" r="8" fill="#3F444D"/>
<circle cx="57.1576" cy="56.9998" r="7.88235" stroke="white" stroke-opacity="0.3" stroke-width="0.235294"/>
</g>
<circle cx="57.1576" cy="56.9998" r="4" fill="#3F444D"/>
<circle cx="57.1576" cy="56.9998" r="3.85714" stroke="white" stroke-opacity="0.3" stroke-width="0.285714"/>
<g filter="url(#filter7_i_5_37572)">
<path d="M56.5082 23.9998C74.3747 23.9998 88.8586 38.4838 88.8588 56.3503C88.8586 74.2168 74.3747 88.7009 56.5082 88.7009C38.6419 88.7007 24.1578 74.2167 24.1576 56.3503C24.1577 38.484 38.6418 24 56.5082 23.9998ZM56.5092 30.2283C42.0826 30.2283 30.3871 41.9237 30.3871 56.3503C30.3872 70.7769 42.0826 82.4724 56.5092 82.4724C70.9355 82.4721 82.6312 70.7767 82.6312 56.3503C82.6312 41.9239 70.9355 30.2285 56.5092 30.2283Z" fill="#3F444D"/>
</g>
<path d="M56.5082 23.9998V23.8998V23.9998ZM88.8588 56.3503H88.9588H88.8588ZM56.5082 88.7009V88.8009V88.7009ZM24.1576 56.3503H24.0576H24.1576ZM56.5092 30.2283V30.1283V30.2283ZM30.3871 56.3503H30.2871H30.3871ZM56.5092 82.4724V82.5724V82.4724ZM82.6312 56.3503H82.7312H82.6312ZM56.5082 23.9998V24.0998C74.3195 24.0998 88.7586 38.539 88.7588 56.3503H88.8588H88.9588C88.9586 38.4286 74.43 23.8998 56.5082 23.8998V23.9998ZM88.8588 56.3503H88.7588C88.7586 74.1616 74.3195 88.6009 56.5082 88.6009V88.7009V88.8009C74.4299 88.8009 88.9586 74.272 88.9588 56.3503H88.8588ZM56.5082 88.7009V88.6009C38.6971 88.6007 24.2578 74.1614 24.2576 56.3503H24.1576H24.0576C24.0578 74.2719 38.5867 88.8007 56.5082 88.8009V88.7009ZM24.1576 56.3503H24.2576C24.2577 38.5392 38.6971 24.1 56.5082 24.0998V23.9998V23.8998C38.5866 23.9 24.0577 38.4287 24.0576 56.3503H24.1576ZM56.5092 30.2283V30.1283C42.0273 30.1283 30.2871 41.8685 30.2871 56.3503H30.3871H30.4871C30.4871 41.979 42.1378 30.3283 56.5092 30.3283V30.2283ZM30.3871 56.3503H30.2871C30.2872 70.8321 42.0274 82.5724 56.5092 82.5724V82.4724V82.3724C42.1378 82.3724 30.4872 70.7216 30.4871 56.3503H30.3871ZM56.5092 82.4724V82.5724C70.9907 82.5721 82.7312 70.8319 82.7312 56.3503H82.6312H82.5312C82.5312 70.7215 70.8803 82.3722 56.5092 82.3724V82.4724ZM82.6312 56.3503H82.7312C82.7312 41.8687 70.9907 30.1285 56.5092 30.1283V30.2283V30.3283C70.8803 30.3285 82.5312 41.9791 82.5312 56.3503H82.6312Z" fill="white" fill-opacity="0.3"/>
</g>
<defs>
<filter id="filter0_iii_5_37572" x="0.157593" y="-0.000244141" width="113.685" height="113.685" filterUnits="userSpaceOnUse" color-interpolation-filters="sRGB">
<feFlood flood-opacity="0" result="BackgroundImageFix"/>
<feBlend mode="normal" in="SourceGraphic" in2="BackgroundImageFix" result="shape"/>
<feColorMatrix in="SourceAlpha" type="matrix" values="0 0 0 0 0 0 0 0 0 0 0 0 0 0 0 0 0 0 127 0" result="hardAlpha"/>
<feOffset/>
<feGaussianBlur stdDeviation="5"/>
<feComposite in2="hardAlpha" operator="arithmetic" k2="-1" k3="1"/>
<feColorMatrix type="matrix" values="0 0 0 0 0.639216 0 0 0 0 0.741176 0 0 0 0 0.929412 0 0 0 0.1 0"/>
<feBlend mode="normal" in2="shape" result="effect1_innerShadow_5_37572"/>
<feColorMatrix in="SourceAlpha" type="matrix" values="0 0 0 0 0 0 0 0 0 0 0 0 0 0 0 0 0 0 127 0" result="hardAlpha"/>
<feOffset/>
<feGaussianBlur stdDeviation="2.5"/>
<feComposite in2="hardAlpha" operator="arithmetic" k2="-1" k3="1"/>
<feColorMatrix type="matrix" values="0 0 0 0 1 0 0 0 0 1 0 0 0 0 1 0 0 0 0.15 0"/>
<feBlend mode="normal" in2="effect1_innerShadow_5_37572" result="effect2_innerShadow_5_37572"/>
<feColorMatrix in="SourceAlpha" type="matrix" values="0 0 0 0 0 0 0 0 0 0 0 0 0 0 0 0 0 0 127 0" result="hardAlpha"/>
<feOffset/>
<feGaussianBlur stdDeviation="2.5"/>
<feComposite in2="hardAlpha" operator="arithmetic" k2="-1" k3="1"/>
<feColorMatrix type="matrix" values="0 0 0 0 0.639216 0 0 0 0 0.741176 0 0 0 0 0.929412 0 0 0 0.1 0"/>
<feBlend mode="normal" in2="effect2_innerShadow_5_37572" result="effect3_innerShadow_5_37572"/>
</filter>
<filter id="filter1_dii_5_37572" x="1.15759" y="0.999756" width="110.948" height="110.948" filterUnits="userSpaceOnUse" color-interpolation-filters="sRGB">
<feFlood flood-opacity="0" result="BackgroundImageFix"/>
<feColorMatrix in="SourceAlpha" type="matrix" values="0 0 0 0 0 0 0 0 0 0 0 0 0 0 0 0 0 0 127 0" result="hardAlpha"/>
<feOffset/>
<feGaussianBlur stdDeviation="5"/>
<feComposite in2="hardAlpha" operator="out"/>
<feColorMatrix type="matrix" values="0 0 0 0 0.501961 0 0 0 0 0.529412 0 0 0 0 0.576471 0 0 0 0.25 0"/>
<feBlend mode="normal" in2="BackgroundImageFix" result="effect1_dropShadow_5_37572"/>
<feBlend mode="normal" in="SourceGraphic" in2="effect1_dropShadow_5_37572" result="shape"/>
<feColorMatrix in="SourceAlpha" type="matrix" values="0 0 0 0 0 0 0 0 0 0 0 0 0 0 0 0 0 0 127 0" result="hardAlpha"/>
<feOffset/>
<feGaussianBlur stdDeviation="2.5"/>
<feComposite in2="hardAlpha" operator="arithmetic" k2="-1" k3="1"/>
<feColorMatrix type="matrix" values="0 0 0 0 0.639216 0 0 0 0 0.741176 0 0 0 0 0.929412 0 0 0 0.15 0"/>
<feBlend mode="normal" in2="shape" result="effect2_innerShadow_5_37572"/>
<feColorMatrix in="SourceAlpha" type="matrix" values="0 0 0 0 0 0 0 0 0 0 0 0 0 0 0 0 0 0 127 0" result="hardAlpha"/>
<feOffset/>
<feGaussianBlur stdDeviation="2.5"/>
<feComposite in2="hardAlpha" operator="arithmetic" k2="-1" k3="1"/>
<feColorMatrix type="matrix" values="0 0 0 0 0.639216 0 0 0 0 0.741176 0 0 0 0 0.929412 0 0 0 0.1 0"/>
<feBlend mode="normal" in2="effect2_innerShadow_5_37572" result="effect3_innerShadow_5_37572"/>
</filter>
<filter id="filter2_di_5_37572" x="88.1576" y="16.9998" width="28" height="36" filterUnits="userSpaceOnUse" color-interpolation-filters="sRGB">
<feFlood flood-opacity="0" result="BackgroundImageFix"/>
<feColorMatrix in="SourceAlpha" type="matrix" values="0 0 0 0 0 0 0 0 0 0 0 0 0 0 0 0 0 0 127 0" result="hardAlpha"/>
<feOffset/>
<feGaussianBlur stdDeviation="5"/>
<feComposite in2="hardAlpha" operator="out"/>
<feColorMatrix type="matrix" values="0 0 0 0 0.0745098 0 0 0 0 0.0823529 0 0 0 0 0.0941176 0 0 0 0.4 0"/>
<feBlend mode="normal" in2="BackgroundImageFix" result="effect1_dropShadow_5_37572"/>
<feBlend mode="normal" in="SourceGraphic" in2="effect1_dropShadow_5_37572" result="shape"/>
<feColorMatrix in="SourceAlpha" type="matrix" values="0 0 0 0 0 0 0 0 0 0 0 0 0 0 0 0 0 0 127 0" result="hardAlpha"/>
<feOffset/>
<feGaussianBlur stdDeviation="2.5"/>
<feComposite in2="hardAlpha" operator="arithmetic" k2="-1" k3="1"/>
<feColorMatrix type="matrix" values="0 0 0 0 0.639216 0 0 0 0 0.741176 0 0 0 0 0.929412 0 0 0 0.1 0"/>
<feBlend mode="normal" in2="shape" result="effect2_innerShadow_5_37572"/>
</filter>
<filter id="filter3_di_5_37572" x="88.1576" y="56.9998" width="28" height="36" filterUnits="userSpaceOnUse" color-interpolation-filters="sRGB">
<feFlood flood-opacity="0" result="BackgroundImageFix"/>
<feColorMatrix in="SourceAlpha" type="matrix" values="0 0 0 0 0 0 0 0 0 0 0 0 0 0 0 0 0 0 127 0" result="hardAlpha"/>
<feOffset/>
<feGaussianBlur stdDeviation="5"/>
<feComposite in2="hardAlpha" operator="out"/>
<feColorMatrix type="matrix" values="0 0 0 0 0.0745098 0 0 0 0 0.0823529 0 0 0 0 0.0941176 0 0 0 0.4 0"/>
<feBlend mode="normal" in2="BackgroundImageFix" result="effect1_dropShadow_5_37572"/>
<feBlend mode="normal" in="SourceGraphic" in2="effect1_dropShadow_5_37572" result="shape"/>
<feColorMatrix in="SourceAlpha" type="matrix" values="0 0 0 0 0 0 0 0 0 0 0 0 0 0 0 0 0 0 127 0" result="hardAlpha"/>
<feOffset/>
<feGaussianBlur stdDeviation="2.5"/>
<feComposite in2="hardAlpha" operator="arithmetic" k2="-1" k3="1"/>
<feColorMatrix type="matrix" values="0 0 0 0 0.639216 0 0 0 0 0.741176 0 0 0 0 0.929412 0 0 0 0.1 0"/>
<feBlend mode="normal" in2="shape" result="effect2_innerShadow_5_37572"/>
</filter>
<filter id="filter4_d_5_37572" x="18.0576" y="17.8998" width="76.9011" height="76.9011" filterUnits="userSpaceOnUse" color-interpolation-filters="sRGB">
<feFlood flood-opacity="0" result="BackgroundImageFix"/>
<feColorMatrix in="SourceAlpha" type="matrix" values="0 0 0 0 0 0 0 0 0 0 0 0 0 0 0 0 0 0 127 0" result="hardAlpha"/>
<feOffset/>
<feGaussianBlur stdDeviation="3"/>
<feComposite in2="hardAlpha" operator="out"/>
<feColorMatrix type="matrix" values="0 0 0 0 0.639216 0 0 0 0 0.741176 0 0 0 0 0.929412 0 0 0 0.5 0"/>
<feBlend mode="normal" in2="BackgroundImageFix" result="effect1_dropShadow_5_37572"/>
<feBlend mode="normal" in="SourceGraphic" in2="effect1_dropShadow_5_37572" result="shape"/>
</filter>
<filter id="filter5_i_5_37572" x="35.1576" y="34.9998" width="43.8525" height="44.0117" filterUnits="userSpaceOnUse" color-interpolation-filters="sRGB">
<feFlood flood-opacity="0" result="BackgroundImageFix"/>
<feBlend mode="normal" in="SourceGraphic" in2="BackgroundImageFix" result="shape"/>
<feColorMatrix in="SourceAlpha" type="matrix" values="0 0 0 0 0 0 0 0 0 0 0 0 0 0 0 0 0 0 127 0" result="hardAlpha"/>
<feOffset/>
<feGaussianBlur stdDeviation="1"/>
<feComposite in2="hardAlpha" operator="arithmetic" k2="-1" k3="1"/>
<feColorMatrix type="matrix" values="0 0 0 0 0.639216 0 0 0 0 0.741176 0 0 0 0 0.929412 0 0 0 0.5 0"/>
<feBlend mode="normal" in2="shape" result="effect1_innerShadow_5_37572"/>
</filter>
<filter id="filter6_di_5_37572" x="29.1576" y="28.9998" width="56" height="56" filterUnits="userSpaceOnUse" color-interpolation-filters="sRGB">
<feFlood flood-opacity="0" result="BackgroundImageFix"/>
<feColorMatrix in="SourceAlpha" type="matrix" values="0 0 0 0 0 0 0 0 0 0 0 0 0 0 0 0 0 0 127 0" result="hardAlpha"/>
<feOffset/>
<feGaussianBlur stdDeviation="10"/>
<feComposite in2="hardAlpha" operator="out"/>
<feColorMatrix type="matrix" values="0 0 0 0 0.501961 0 0 0 0 0.529412 0 0 0 0 0.576471 0 0 0 0.5 0"/>
<feBlend mode="normal" in2="BackgroundImageFix" result="effect1_dropShadow_5_37572"/>
<feBlend mode="normal" in="SourceGraphic" in2="effect1_dropShadow_5_37572" result="shape"/>
<feColorMatrix in="SourceAlpha" type="matrix" values="0 0 0 0 0 0 0 0 0 0 0 0 0 0 0 0 0 0 127 0" result="hardAlpha"/>
<feOffset/>
<feGaussianBlur stdDeviation="2.5"/>
<feComposite in2="hardAlpha" operator="arithmetic" k2="-1" k3="1"/>
<feColorMatrix type="matrix" values="0 0 0 0 1 0 0 0 0 1 0 0 0 0 1 0 0 0 0.2 0"/>
<feBlend mode="normal" in2="shape" result="effect2_innerShadow_5_37572"/>
</filter>
<filter id="filter7_i_5_37572" x="24.0576" y="23.8998" width="64.9011" height="64.9011" filterUnits="userSpaceOnUse" color-interpolation-filters="sRGB">
<feFlood flood-opacity="0" result="BackgroundImageFix"/>
<feBlend mode="normal" in="SourceGraphic" in2="BackgroundImageFix" result="shape"/>
<feColorMatrix in="SourceAlpha" type="matrix" values="0 0 0 0 0 0 0 0 0 0 0 0 0 0 0 0 0 0 127 0" result="hardAlpha"/>
<feOffset/>
<feGaussianBlur stdDeviation="1.5"/>
<feComposite in2="hardAlpha" operator="arithmetic" k2="-1" k3="1"/>
<feColorMatrix type="matrix" values="0 0 0 0 0.639216 0 0 0 0 0.741176 0 0 0 0 0.929412 0 0 0 0.5 0"/>
<feBlend mode="normal" in2="shape" result="effect1_innerShadow_5_37572"/>
</filter>
<linearGradient id="paint0_linear_5_37572" x1="57" y1="-0.000244141" x2="57" y2="113.685" gradientUnits="userSpaceOnUse">
<stop stop-color="#C8D7F5" stop-opacity="0"/>
<stop offset="0.5" stop-color="#49505B"/>
<stop offset="1" stop-color="#25272C"/>
</linearGradient>
<linearGradient id="paint1_linear_5_37572" x1="12" y1="12.5" x2="99.5" y2="98.5" gradientUnits="userSpaceOnUse">
<stop stop-color="#C8D7F5"/>
<stop offset="1" stop-color="#3F444D"/>
</linearGradient>
</defs>
</svg>
