<svg width="120" height="120" viewBox="0 0 120 120" fill="none" xmlns="http://www.w3.org/2000/svg">
<rect width="120" height="120" rx="12" fill="#49505B" fill-opacity="0.5"/>
<path d="M75.9099 75.9099C67.1231 84.6967 52.8769 84.6967 44.0901 75.9099M105 60C105 84.8528 84.8528 105 60 105C35.1472 105 15 84.8528 15 60C15 35.1472 35.1472 15 60 15C84.8528 15 105 35.1472 105 60ZM48.75 48.75C48.75 50.8211 47.9105 52.5 46.875 52.5C45.8395 52.5 45 50.8211 45 48.75C45 46.6789 45.8395 45 46.875 45C47.9105 45 48.75 46.6789 48.75 48.75ZM46.875 48.75H46.9125V48.825H46.875V48.75ZM75 48.75C75 50.8211 74.1605 52.5 73.125 52.5C72.0895 52.5 71.25 50.8211 71.25 48.75C71.25 46.6789 72.0895 45 73.125 45C74.1605 45 75 46.6789 75 48.75ZM73.125 48.75H73.1625V48.825H73.125V48.75Z" stroke="white" stroke-width="7.5" stroke-linecap="round" stroke-linejoin="round"/>
</svg>
